<?xml version="1.0" encoding="iso-8859-1"?>
<!-- Uploaded to: SVG Repo, www.svgrepo.com, Generator: SVG Repo Mixer Tools -->
<svg height="800px" width="800px" version="1.1" id="Layer_1" xmlns="http://www.w3.org/2000/svg" xmlns:xlink="http://www.w3.org/1999/xlink" 
	 viewBox="0 0 512 512" xml:space="preserve">
<path style="fill:#80D0E1;" d="M464.023,407.045h-96.115c-9.425,0-17.067-7.641-17.067-17.067V97.918
	c0-9.425,7.641-17.067,17.067-17.067h96.115c9.425,0,17.067,7.641,17.067,17.067v292.061
	C481.09,399.404,473.449,407.045,464.023,407.045z"/>
<g>
	<path style="fill:#C7E9F4;" d="M144.092,407.045H47.977c-9.425,0-17.067-7.641-17.067-17.067v-256.43
		c0-9.425,7.641-17.067,17.067-17.067h96.115c9.425,0,17.067,7.641,17.067,17.067v256.43
		C161.158,399.404,153.517,407.045,144.092,407.045z"/>
	<path style="fill:#C7E9F4;" d="M304.057,407.045h-96.116c-9.425,0-17.067-7.641-17.067-17.067V207.26
		c0-9.425,7.641-17.067,17.067-17.067h96.116c9.425,0,17.067,7.641,17.067,17.067v182.718
		C321.124,399.404,313.483,407.045,304.057,407.045z"/>
</g>
<path style="fill:#80D0E1;" d="M304.057,190.194H256v216.851h48.057c9.425,0,17.067-7.641,17.067-17.067V207.26
	C321.124,197.835,313.483,190.194,304.057,190.194z"/>
<path style="fill:#6A82A1;" d="M494.933,372.912h-61.901v-7.038c0-9.425-7.641-17.067-17.067-17.067s-17.067,7.641-17.067,17.067
	v7.038H273.067v-7.038c0-9.425-7.641-17.067-17.067-17.067c-9.425,0-17.067,7.641-17.067,17.067v7.038H113.101v-7.038
	c0-9.425-7.641-17.067-17.067-17.067s-17.067,7.641-17.067,17.067v7.038H17.067C7.641,372.912,0,380.553,0,389.978
	c0,9.425,7.641,17.067,17.067,17.067h61.901v7.037c0,9.425,7.641,17.067,17.067,17.067s17.067-7.641,17.067-17.067v-7.037h125.833
	v7.037c0,9.425,7.641,17.067,17.067,17.067c9.425,0,17.067-7.641,17.067-17.067v-7.037h125.833v7.037
	c0,9.425,7.641,17.067,17.067,17.067s17.067-7.641,17.067-17.067v-7.037h61.901c9.425,0,17.067-7.641,17.067-17.067
	C512,380.553,504.359,372.912,494.933,372.912z"/>
<path style="fill:#36495E;" d="M494.933,372.912h-61.901v-7.038c0-9.425-7.641-17.067-17.067-17.067s-17.067,7.641-17.067,17.067
	v7.038H273.067v-7.038c0-9.425-7.641-17.067-17.067-17.067v82.342c9.425,0,17.067-7.641,17.067-17.067v-7.037h125.833v7.037
	c0,9.425,7.641,17.067,17.067,17.067s17.067-7.641,17.067-17.067v-7.037h61.901c9.425,0,17.067-7.641,17.067-17.067
	C512,380.553,504.359,372.912,494.933,372.912z"/>
</svg>